<?xml version="1.0" encoding="utf-8"?>
<!-- Generator: Adobe Illustrator 21.0.2, SVG Export Plug-In . SVG Version: 6.00 Build 0)  -->
<svg version="1.1"
	 id="svg2" inkscape:version="0.92.2 (5c3e80d, 2017-08-06)" sodipodi:docname="EA Sports (Print).svg" xmlns:cc="http://creativecommons.org/ns#" xmlns:dc="http://purl.org/dc/elements/1.1/" xmlns:inkscape="http://www.inkscape.org/namespaces/inkscape" xmlns:rdf="http://www.w3.org/1999/02/22-rdf-syntax-ns#" xmlns:sodipodi="http://sodipodi.sourceforge.net/DTD/sodipodi-0.dtd" xmlns:svg="http://www.w3.org/2000/svg"
	 xmlns="http://www.w3.org/2000/svg" xmlns:xlink="http://www.w3.org/1999/xlink" x="0px" y="0px" viewBox="0 0 1000 1000"
	 style="enable-background:new 0 0 1000 1000;" xml:space="preserve">
<style type="text/css">
	.st0{fill:#FFFFFF;}
</style>
<sodipodi:namedview  bordercolor="#666666" borderopacity="1.0" id="base" inkscape:current-layer="layer1" inkscape:cx="607.60775" inkscape:cy="575.68888" inkscape:document-units="px" inkscape:pageopacity="0.0" inkscape:pageshadow="2" inkscape:window-height="706" inkscape:window-maximized="1" inkscape:window-width="1360" inkscape:window-x="-8" inkscape:window-y="-8" inkscape:zoom="0.22404375" pagecolor="#ffffff" showgrid="false" units="px">
	</sodipodi:namedview>
<g id="layer1" transform="translate(0,-52.362149)" inkscape:groupmode="layer" inkscape:label="Taso 1">
	<g id="g7988">
	</g>
	<g id="g8006">
		<g id="g8012" transform="translate(223.6548,493.9024)">
		</g>
	</g>
</g>
<g>
	<g>
		<path class="st0" d="M500,66C348.9,66,226,188.9,226,340.1c0,151.1,122.9,274,274.1,274c151.1,0,274-122.9,274-274
			C774,188.9,651.1,66,500,66z M500,576.1c-130.4,0-236-105.7-236-236s105.7-236,236-236s236,105.7,236,236S630.4,576.1,500,576.1z"
			/>
		<polygon class="st0" points="538.4,192.8 397.6,192.8 376,227 516.8,227 		"/>
		<polygon class="st0" points="591.8,295.5 570.7,295.5 549.1,329.9 613.5,329.9 635.2,364.1 676.3,364.1 567.3,191.6 479.7,329.9 
			383.9,329.9 405.9,295.6 465.4,295.6 487.1,261.4 354.4,261.4 332.7,295.6 364.6,295.6 321.2,364.1 499.6,364.1 567.3,256.6 		"/>
		<polygon class="st0" points="680.2,385.4 683,385.4 683,391.3 684.4,391.3 684.4,385.4 687.3,385.4 687.3,384.1 680.2,384.1 		"/>
		<polygon class="st0" points="695.7,384.1 692.9,388.4 690.1,384.1 688.9,384.1 688.9,391.3 690.1,391.3 690.1,386.9 690,386.1 
			690.4,386.8 692.7,390.4 693,390.4 695.3,386.9 695.6,386.1 695.6,386.9 695.6,391.3 696.8,391.3 696.8,384.1 		"/>
		<path class="st0" d="M353.3,411.7h-15.7c-3.6,0-5.3-1.9-5.3-5.8v-6.2c0-1.8,0.4-3.2,1.4-4.4c1-1.2,2.2-1.8,3.9-1.8H350
			c2.9,0,4.9,1.4,5.8,4.3l1.7,6h11.3v-6.6c0-4.4-1.4-8.1-4.4-11.1c-3-2.9-6.7-4.4-11-4.4H335c-4.3,0-8,1.5-11.1,4.6
			c-3,3.1-4.6,6.8-4.6,11.1V408c0,4.4,1.6,8.1,4.6,11.3c3.1,3,6.8,4.5,11.1,4.5h15.8c3.5,0,5.3,2,5.3,6v8.1c0,1.7-0.5,3.2-1.4,4.4
			c-1,1.1-2.2,1.7-3.8,1.7h-12.6c-3.1,0-5-1.4-5.8-4.3l-1.7-6.8h-11.4v7.3c0,4.5,1.5,8.1,4.4,11.1c3,2.9,6.7,4.4,11.1,4.4h18.5
			c4.3,0,8.1-1.5,11.2-4.6c3-3,4.5-6.8,4.5-11.2v-12.5c0-4.3-1.5-7.9-4.6-11.1C361.3,413.2,357.6,411.7,353.3,411.7z"/>
		<path class="st0" d="M417.8,381.7h-33.5v74h13.1v-27.1h20.4c4.3,0,8.1-1.5,11.2-4.6c3.1-3.1,4.7-6.8,4.7-11.1v-15.5
			c0-4.3-1.6-8-4.7-11C425.9,383.3,422.1,381.7,417.8,381.7z M420.5,410.5c0,1.8-0.5,3.2-1.4,4.4l-3.8,1.7h-17.8v-23h17.8l3.8,1.7
			c1,1.2,1.4,2.5,1.4,4.3V410.5z"/>
		<path class="st0" d="M558,419.3c1.8-2.7,2.8-5.7,2.8-9.1v-12.9c0-4.2-1.6-7.9-4.6-11c-3-3-6.7-4.6-11.1-4.6h-32.8v74h13.1v-28.9
			h12.4l12,28.9l13.9,0l-13-30.6C553.7,423.9,556.1,422,558,419.3z M547.6,408.8c0,1.8-0.4,3.2-1.4,4.3l-3.6,1.6h-17.2v-21.2h17.2
			l3.6,1.7c1,1.2,1.4,2.6,1.4,4.3V408.8z"/>
		<polygon class="st0" points="569,393.7 587.8,393.7 587.8,455.7 600.9,455.7 600.9,393.7 619.9,393.7 619.9,381.7 569,381.7 		"/>
		<path class="st0" d="M674.5,416.4c-3-3.1-6.7-4.7-11.1-4.7h-15.7c-3.5,0-5.3-1.9-5.3-5.8v-6.2c0-1.8,0.4-3.2,1.4-4.4
			c0.9-1.2,2.2-1.8,3.8-1.8h12.4c2.9,0,4.8,1.4,5.7,4.3l1.7,6H679v-6.6c0-4.4-1.5-8.1-4.5-11.1c-3-2.9-6.7-4.4-11.1-4.4h-18.3
			c-4.3,0-8.1,1.5-11.1,4.6c-3,3.1-4.6,6.8-4.6,11.1V408c0,4.4,1.6,8.1,4.6,11.3c3,3,6.8,4.5,11.1,4.5H661c3.5,0,5.2,2,5.2,6v8.1
			c0,1.7-0.4,3.2-1.3,4.4c-1,1.1-2.3,1.7-3.9,1.7h-12.6c-3.1,0-5-1.4-5.8-4.3l-1.7-6.8h-11.4v7.3c0,4.5,1.5,8.1,4.4,11.1
			c3,2.9,6.7,4.4,11.1,4.4h18.5c4.4,0,8.1-1.5,11.2-4.6c3-3,4.5-6.8,4.5-11.2l0-12.5C679.2,423.1,677.7,419.5,674.5,416.4z"/>
		<path class="st0" d="M480.5,381.7h-17.7c-4.4,0-8.2,1.5-11.2,4.6c-3,3-4.6,6.8-4.6,11v42.6c0,4.5,1.6,8.2,4.6,11.3
			c3,3,6.8,4.6,11.2,4.6h17.7c4.4,0,8.1-1.6,11.2-4.6c3.1-3.1,4.6-6.8,4.6-11.3v-42.6c0-4.3-1.5-8-4.6-11
			C488.6,383.2,485,381.7,480.5,381.7z M483.3,437.7c0,1.7-0.5,3.1-1.5,4.3l-3.8,1.8h-12.6l-3.8-1.8c-0.9-1.2-1.4-2.6-1.4-4.3v-37.9
			c0-1.8,0.5-3.2,1.4-4.4l3.8-1.7H478l3.8,1.7c1,1.2,1.5,2.6,1.5,4.4V437.7z"/>
	</g>
	<g>
		<g id="g2993" transform="matrix(1.25,0,0,-1.25,-13.850625,118.73238)">
			<g id="g3003" transform="translate(28.0225,30.0059)">
				<path id="path3005" class="st0" d="M60.1-679.8v85.5v3h59.3v43.3H60.1v35c0,0,0.6,11,12.1,11h70.1v44.2H52.9
					c-11,0-44.4-10.2-44.4-44.4v-177.6H60.1z"/>
			</g>
			<g id="g3007" transform="translate(91.0273,30.0059)">
				<path id="path3009" class="st0" d="M220.7-679.8v85.5v3H280v43.3h-59.3v35c0,0,0.6,11,12.1,11h70.1v44.2h-89.4
					c-11,0-44.4-10.2-44.4-44.4v-177.6H220.7z"/>
			</g>
			<path id="path3019" class="st0" d="M185-427.8h53.1v-224.3H185V-427.8z"/>
			<g id="g3021" transform="translate(156.2568,87.6221)">
				<path id="path3023" class="st0" d="M386.9-533c-10.7,13.1-27.9,17.6-35.2,17.6h-54.2c-7.3,0-24.5-4.6-35.2-17.6
					c-5.4-6.6-9.2-15.3-9.2-26.8v-177.6h51.6v85.5v3v43.3v35c0,0,0.6,11,12.1,11h15.6c11.6,0,12.1-11,12.1-11v-35v-11.3h-29.1v-44.4
					h29.1v-76.1h51.6v177.6C396.2-548.3,392.3-539.6,386.9-533"/>
			</g>
		</g>
		<g>
			<g>
				<path class="st0" d="M809.7,830.4c0,5.4-3.2,8.8-8.4,8.8c-5.2,0-8.1-3.9-8.1-8.6c0-4.9,3.2-8.8,8.3-8.8
					C807,821.9,809.7,825.9,809.7,830.4z M798,830.6c0,3.1,1.4,5.1,3.5,5.1c2.2,0,3.4-2.1,3.4-5.1c0-2.9-1.3-5.1-3.5-5.1
					C799.4,825.4,798,827.5,798,830.6z"/>
				<path class="st0" d="M813.6,822.1h10.8v3.7h-6.3v3.1h5.9v3.6h-5.9v6.4h-4.5V822.1z"/>
				<path class="st0" d="M828.6,822.1h10.8v3.7h-6.3v3.1h5.9v3.6h-5.9v6.4h-4.5V822.1z"/>
				<path class="st0" d="M848.2,822.1v16.8h-4.5v-16.8H848.2z"/>
				<path class="st0" d="M865.3,838.5c-0.6,0.3-2.2,0.7-4.2,0.7c-6.3,0-9-3.9-9-8.4c0-5.9,4.3-8.9,9.3-8.9c1.9,0,3.5,0.4,4.2,0.7
					l-0.9,3.5c-0.7-0.3-1.8-0.6-3.1-0.6c-2.6,0-4.8,1.5-4.8,4.9c0,3.1,1.8,5,4.9,5c1.1,0,2.3-0.2,3-0.5L865.3,838.5z"/>
				<path class="st0" d="M873.7,822.1v16.8h-4.5v-16.8H873.7z"/>
				<path class="st0" d="M882.7,835l-0.9,3.9h-4.6l4.9-16.8h6l5,16.8h-4.9L887,835H882.7z M886.4,831.7l-0.8-3
					c-0.2-0.9-0.6-2.3-0.8-3.3h0c-0.2,1-0.5,2.4-0.7,3.3l-0.7,3H886.4z"/>
				<path class="st0" d="M896.6,822.1h4.5v13h6.4v3.8h-10.9V822.1z"/>
				<path class="st0" d="M793.9,852h4.5v13h6.4v3.8h-10.9V852z"/>
				<path class="st0" d="M813.1,852v16.8h-4.5V852H813.1z"/>
				<path class="st0" d="M830.2,868.3c-0.6,0.3-2.2,0.7-4.2,0.7c-6.3,0-9-3.9-9-8.4c0-5.9,4.3-8.9,9.3-8.9c1.9,0,3.5,0.4,4.2,0.7
					l-0.9,3.5c-0.7-0.3-1.8-0.6-3.1-0.6c-2.6,0-4.8,1.5-4.8,4.9c0,3.1,1.8,4.9,4.9,4.9c1.1,0,2.3-0.2,3-0.5L830.2,868.3z"/>
				<path class="st0" d="M844.6,862h-6v3.1h6.7v3.7h-11.2V852H845v3.7h-6.4v2.7h6V862z"/>
				<path class="st0" d="M849.3,868.8V852h5.3l2.7,5.1c0.9,1.7,1.9,3.9,2.6,5.9h0.1c-0.2-2.2-0.3-4.6-0.3-7.1v-4h4.1v16.8H859
					l-2.8-5.6c-0.9-1.8-2-4-2.8-6.1h-0.1c0.1,2.3,0.1,4.8,0.1,7.5v4.1H849.3z"/>
				<path class="st0" d="M868.6,864.3c1,0.5,2.7,1,4.4,1c1.5,0,2.3-0.5,2.3-1.4c0-0.8-0.7-1.3-2.6-1.9c-2.8-1-4.7-2.6-4.7-5
					c0-3,2.5-5.2,6.7-5.2c2,0,3.4,0.4,4.6,0.9l-0.9,3.6c-0.7-0.3-2-0.8-3.7-0.8c-1.4,0-2.1,0.5-2.1,1.2c0,0.8,0.9,1.2,3,2
					c3,1.1,4.4,2.7,4.4,5c0,2.9-2.3,5.4-7.2,5.4c-2,0-4-0.5-4.9-1L868.6,864.3z"/>
				<path class="st0" d="M894.3,862h-6v3.1h6.7v3.7h-11.2V852h10.9v3.7h-6.4v2.7h6V862z"/>
				<path class="st0" d="M899,852.2c1.4-0.2,3.4-0.3,5.3-0.3c3.2,0,5.2,0.5,6.9,1.7c1.8,1.3,3,3.4,3,6.4c0,3.4-1.3,5.6-2.9,6.9
					c-1.8,1.4-4.6,2.1-7.9,2.1c-2.2,0-3.6-0.1-4.5-0.3V852.2z M903.5,865.4c0.2,0.1,0.6,0.1,0.9,0.1c2.9,0,5-1.6,5-5.3
					c0-3.3-1.9-4.8-4.6-4.8c-0.7,0-1.1,0-1.4,0.1V865.4z"/>
				<path class="st0" d="M793.9,882.1c1.2-0.2,3-0.3,5.5-0.3c2.4,0,4.1,0.4,5.3,1.3c1.1,0.8,1.9,2.3,1.9,4.1c0,1.7-0.6,3.2-1.6,4.1
					c-1.4,1.2-3.3,1.7-5.6,1.7c-0.4,0-0.8,0-1.1,0v5.7h-4.5V882.1z M798.4,889.5c0.3,0,0.5,0.1,1,0.1c1.8,0,2.9-0.9,2.9-2.3
					c0-1.2-0.8-2.1-2.5-2.1c-0.7,0-1.1,0.1-1.3,0.1V889.5z"/>
				<path class="st0" d="M810.4,882.1c1.3-0.2,3.2-0.3,5.4-0.3c2.6,0,4.4,0.3,5.7,1.3c1.1,0.8,1.7,2,1.7,3.7c0,2.1-1.6,3.6-2.9,4.1
					v0.1c1.1,0.5,1.7,1.5,2.1,3c0.5,1.7,1.1,4.2,1.4,4.8h-4.6c-0.2-0.5-0.7-1.8-1.2-3.9c-0.4-2-1.1-2.4-2.5-2.4h-0.7v6.3h-4.5V882.1
					z M814.8,889.1h1.2c1.7,0,2.7-0.8,2.7-2.1c0-1.3-0.8-2-2.3-2c-0.8,0-1.3,0-1.5,0.1V889.1z"/>
				<path class="st0" d="M842.8,890c0,5.4-3.2,8.8-8.4,8.8c-5.2,0-8.1-3.9-8.1-8.6c0-4.9,3.2-8.8,8.3-8.8
					C840.1,881.6,842.8,885.6,842.8,890z M831.1,890.2c0,3.1,1.4,5.1,3.5,5.1c2.2,0,3.4-2.1,3.4-5.1c0-2.9-1.3-5.1-3.5-5.1
					C832.5,885.1,831.1,887.2,831.1,890.2z"/>
				<path class="st0" d="M846.7,882.1c1.4-0.2,3.4-0.3,5.3-0.3c3.2,0,5.2,0.5,6.9,1.7c1.8,1.3,3,3.4,3,6.4c0,3.4-1.3,5.6-2.9,6.9
					c-1.8,1.4-4.6,2.1-7.9,2.1c-2.2,0-3.6-0.1-4.5-0.3V882.1z M851.2,895.2c0.2,0.1,0.6,0.1,0.9,0.1c2.9,0,5-1.6,5-5.3
					c0-3.3-1.9-4.8-4.6-4.8c-0.7,0-1.1,0-1.4,0.1V895.2z"/>
				<path class="st0" d="M870.3,881.8v9.5c0,2.5,0.9,4,2.6,4c1.8,0,2.7-1.3,2.7-4v-9.5h4.5v9.3c0,5.2-2.6,7.8-7.3,7.8
					c-4.6,0-7-2.5-7-7.9v-9.1H870.3z"/>
				<path class="st0" d="M897.2,898.2c-0.6,0.3-2.2,0.7-4.2,0.7c-6.3,0-9-3.9-9-8.4c0-5.9,4.3-8.9,9.3-8.9c1.9,0,3.5,0.4,4.2,0.7
					l-0.9,3.5c-0.7-0.3-1.8-0.6-3.1-0.6c-2.6,0-4.8,1.5-4.8,4.9c0,3.1,1.8,4.9,4.9,4.9c1.1,0,2.3-0.2,3-0.5L897.2,898.2z"/>
				<path class="st0" d="M904.6,885.6h-4.3v-3.8h13.1v3.8h-4.4v13h-4.5V885.6z"/>
			</g>
			<g>
				<path class="st0" d="M968.2,934H743.5V654.7h224.7V934z M745.2,932.4h221.4v-276H745.2V932.4z"/>
			</g>
			<g>
				<rect x="743.9" y="793.9" class="st0" width="223.5" height="1.6"/>
			</g>
			<g id="g2826">
				<g id="g2880_1_" transform="translate(759.558,98.48)">
					<g id="path2882_1_">
						<path inkscape:connector-curvature="0" class="st0" d="M17.6,597.5v50.5h15.9v-18.2h11.1l4.3-11H33.5v-10.2h18.7l4.1-11H17.6"
							/>
					</g>
				</g>
				<g id="g2884_1_" transform="translate(777.985,98.48)">
					<g id="path2886_1_">
						<path inkscape:connector-curvature="0" class="st0" d="M42.7,597.5l0,50.5h15.8v-50.5H42.7"/>
					</g>
				</g>
				<g id="g2888_1_" transform="translate(810.749,84.124)">
					<g id="path2890_1_">
						<path inkscape:connector-curvature="0" class="st0" d="M87.5,645.8l6.1-21l6.3,21H87.5z M102,611.8H85.7l-18.1,50.5h15.2
							l2-6.8h17.7l2.1,6.8h15.7L102,611.8"/>
					</g>
				</g>
				<g id="g2892_1_" transform="translate(789.225,98.48)">
					<g id="path2894_1_">
						<path inkscape:connector-curvature="0" class="st0" d="M58.1,597.5v50.5H74v-18.2h11.1l4.3-11H74v-10.2h18.7l4.1-11H58.1"/>
					</g>
				</g>
				<g id="g2896_1_" transform="translate(823.148,96.207)">
					<g id="path2898_1_">
						<path inkscape:connector-curvature="0" class="st0" d="M104.5,605.1h1.1c0.2,0,0.4,0,0.5,0c0.2,0,0.3-0.1,0.4-0.1
							c0.1-0.1,0.2-0.2,0.3-0.3c0.1-0.1,0.1-0.3,0.1-0.5c0-0.2,0-0.4-0.1-0.5c-0.1-0.1-0.2-0.2-0.3-0.3c-0.1-0.1-0.3-0.1-0.4-0.1
							c-0.2,0-0.3,0-0.5,0h-1.1V605.1z M103.2,602.3h2.5c0.8,0,1.4,0.1,1.8,0.4c0.4,0.3,0.6,0.8,0.6,1.5c0,0.6-0.1,1-0.5,1.3
							c-0.3,0.3-0.7,0.4-1.3,0.5l1.8,2.9h-1.3l-1.7-2.9h-0.7v2.9h-1.3V602.3z M105.5,610.4c0.6,0,1.2-0.1,1.7-0.3
							c0.5-0.2,1-0.6,1.4-1c0.4-0.4,0.7-0.9,1-1.5c0.2-0.6,0.3-1.2,0.3-1.9c0-0.7-0.1-1.3-0.3-1.9c-0.2-0.6-0.6-1.1-1-1.5
							c-0.4-0.4-0.9-0.8-1.4-1c-0.5-0.2-1.1-0.3-1.7-0.3s-1.2,0.1-1.7,0.3c-0.5,0.2-1,0.6-1.4,1c-0.4,0.4-0.7,0.9-1,1.5
							c-0.2,0.6-0.3,1.2-0.3,1.9c0,0.7,0.1,1.3,0.3,1.9c0.2,0.6,0.6,1.1,1,1.5c0.4,0.4,0.9,0.8,1.4,1
							C104.3,610.3,104.9,610.4,105.5,610.4z M105.5,611.5c-0.8,0-1.6-0.2-2.3-0.5c-0.7-0.3-1.3-0.7-1.9-1.3c-0.5-0.5-1-1.2-1.3-1.9
							c-0.3-0.7-0.5-1.5-0.5-2.3c0-0.8,0.1-1.6,0.5-2.3c0.3-0.7,0.7-1.3,1.3-1.9c0.5-0.5,1.2-1,1.9-1.3c0.7-0.3,1.5-0.5,2.3-0.5
							c0.8,0,1.6,0.1,2.3,0.5c0.7,0.3,1.3,0.7,1.9,1.3c0.5,0.5,1,1.2,1.3,1.9c0.3,0.7,0.5,1.5,0.5,2.3c0,0.8-0.2,1.6-0.5,2.3
							c-0.3,0.7-0.7,1.3-1.3,1.9c-0.5,0.5-1.2,1-1.9,1.3C107.1,611.4,106.3,611.5,105.5,611.5"/>
					</g>
				</g>
			</g>
		</g>
	</g>
</g>
</svg>
