<?xml version="1.0" encoding="utf-8"?>
<!-- Generator: Adobe Illustrator 23.0.3, SVG Export Plug-In . SVG Version: 6.00 Build 0)  -->
<svg version="1.1"
	 id="svg2" inkscape:version="0.92.2 (5c3e80d, 2017-08-06)" sodipodi:docname="EA Sports (Print).svg" xmlns:cc="http://creativecommons.org/ns#" xmlns:dc="http://purl.org/dc/elements/1.1/" xmlns:inkscape="http://www.inkscape.org/namespaces/inkscape" xmlns:rdf="http://www.w3.org/1999/02/22-rdf-syntax-ns#" xmlns:sodipodi="http://sodipodi.sourceforge.net/DTD/sodipodi-0.dtd" xmlns:svg="http://www.w3.org/2000/svg"
	 xmlns="http://www.w3.org/2000/svg" xmlns:xlink="http://www.w3.org/1999/xlink" x="0px" y="0px" viewBox="0 0 928.3 247"
	 style="enable-background:new 0 0 928.3 247;" xml:space="preserve">
<style type="text/css">
	.st0{fill:#FFFFFF;}
</style>
<sodipodi:namedview  bordercolor="#666666" borderopacity="1.0" id="base" inkscape:current-layer="layer1" inkscape:cx="607.60775" inkscape:cy="575.68888" inkscape:document-units="px" inkscape:pageopacity="0.0" inkscape:pageshadow="2" inkscape:window-height="706" inkscape:window-maximized="1" inkscape:window-width="1360" inkscape:window-x="-8" inkscape:window-y="-8" inkscape:zoom="0.22404375" pagecolor="#ffffff" showgrid="false" units="px">
	</sodipodi:namedview>
<g id="layer1" transform="translate(0,-52.362149)" inkscape:groupmode="layer" inkscape:label="Taso 1">
	<g id="g7988">
	</g>
	<g id="g8006">
		<g id="g8012" transform="translate(223.6548,493.9024)">
		</g>
	</g>
</g>
<g>
	<path class="st0" d="M755.2,54.4c-9.6,27.1-19.1,54.1-28.7,81.2c-0.4,0-0.8,0-1.2,0c-8.6-22.8-17.2-45.7-25.7-68.3
		c-6.5-4.2-12.6-8.2-18.7-12.2c-0.3,0.2-0.6,0.4-0.9,0.6c3.1,8,6.2,16.1,9.4,24.1c-6.6,18.7-13.2,37.3-19.8,55.9
		c-0.4,0-0.7-0.1-1.1-0.1c-8.2-22.8-16.5-45.6-24.7-68.3c-6.5-4.1-12.4-8.6-20.2-12.7c12.9,33.4,25.3,65.5,37.7,97.8
		c7.1,0.1,13.8,0.2,21.5-0.1c-3.2-3.1-6.5-4.5-7.1-8.6c5.9-16.3,12-33,18.2-49.7c0.4,0,0.7,0,1.1,0c7.7,19.5,15.5,39,23.1,58.2
		c7.4,0,13.9,0,21.2,0c-2.6-2.9-6-4.2-6.8-8.1c0.5-1.4,1.1-3.2,1.7-5c8.5-23.3,17.2-46.7,25.5-70.1c2-5.5,4.2-10.5,9.4-13.7
		c0.1-0.1,0-0.6,0-0.9C764.6,54.4,760.1,54.4,755.2,54.4z"/>
	<path class="st0" d="M471.9,152.2c4.6-0.2,9-1.2,13.4-2.6c20.2-6.3,33.9-22.7,35.4-42.4c1.8-22.3-8.6-39.5-28.7-47.5
		c-6.7-2.7-13.8-4.2-21-4.7c-14.1-1-28.1-0.3-42.2-0.4c-0.9,0-1.9-0.2-2.5,0.7c5.8,6.8,5.8,6.8,5.8,16.7c0,24.3,0,48.7,0,73
		c0,2.2-0.4,4.5,0.8,7.4C446.1,152.4,459,152.7,471.9,152.2z M447.6,64.1c1-1.4,2.4-1,3.7-1c9.9,0.1,19.7,0.8,29.1,4.3
		c19,7.1,26.7,24.2,25,42.7c-1.6,16.8-15.9,31.3-33.3,33.3c-7.9,0.9-15.9,0.2-24.5,0.2C447.6,116.8,447.6,90.4,447.6,64.1z"/>
	<path class="st0" d="M258.8,109.7c0-18.4,0-36.9,0-55.7c-5.2-0.1-9.9-0.6-14.9,0.4c-0.4,18.9,0.3,37.6-0.4,56
		c-3.2,1.2-6.1-0.2-10.1,1.8c4,3.2,7.5,5.8,10.3,8.1c0,8.1,0,14.9,0,21.8c0,2.9-1.1,5.1-3.2,7c-0.9,0.8-2.5,1.1-2.3,3
		c6.8,0,13.5,0,20.5,0c0-8.3,0-16.2,0-24.1c-1.5-2.6-4.5-4-5.9-7.2c18.2,0,36,0,54.3,0c0,10,0,19.8,0,29.5c1.1-0.7,1.6-1.5,1.9-2.4
		c4.2-12.4,8.4-24.8,12.7-37.2c0.8-2.4,1-4.8,1-7.3c0-10.6,0-21.3,0-31.9c0-5.5,0-10.9,0-15.9c-4.9,4.7-9.9,9.5-15.5,14.9
		c0,5.8,0,12.4,0,19.1c0,6.8,0,13.6,0,20.7C297,111.4,263.3,111,258.8,109.7z"/>
	<path class="st0" d="M328.6,152c6.1,0.6,10.9,0.7,15.9,0c3.5-10.4,6.9-20.6,10.2-30.7c12.8,0,25,0,37.4,0
		c2.9,8.3,5.8,16.3,8.4,23.7c-0.6,3.4-3.4,4.6-4.9,7c9.6,0,18.8,0,28,0c-5.5-3.9-7.3-9.7-9.5-15.4c-10.5-28.1-21.2-56.1-31.8-84.1
		c-0.6-1.5-0.9-3.2-2.4-4.6c-4.6,4.5-8.9,8.7-13.3,12.9c-2,1.9-3.3,4.1-4.1,6.7c-2.5,7.6-5,15.1-7.7,22.6
		c-2.5,6.9-4.3,14.1-7.5,21.1c-5.6,0-11,0-17.5,0c4.7,4.4,8.1,8.6,14.1,10.6c-1.7,5-3.3,9.7-4.8,14.4
		C337.4,142.2,335.5,148.1,328.6,152z M373,67.4c5.2,14.6,10.2,28.7,15.4,43.5c-10.5,0-20.1,0-29.7,0
		C359.7,105.7,369.8,74.7,373,67.4z"/>
	<path class="st0" d="M606.8,131.6c-0.4-0.2-0.7-0.4-1.1-0.7c-0.4,0.7-0.7,1.4-1.3,1.9c-12.9,12.8-29.6,13.7-43.6,2.4
		c-13.7-11-19.9-31.8-14.8-49.6c6.5-22.7,32.5-31.1,51.1-16.4c7.4,5.9,12,13.6,14.6,22.6c1.5,5.1,2.1,10.4,2.6,15.7
		c3.8-9,6.8-18.3,9.6-27.3c-12.6-32-49.7-34.4-69-22c-19.8,12.8-27,31.7-24.2,54.5c4.3,34.4,40.7,51.9,70.9,33.9
		C603.3,141.9,605,136.7,606.8,131.6z"/>
	<path class="st0" d="M217.5,145.6c16.7-13,13.7-37.6-5.5-45.9c-5.8-2.5-11.8-4.1-17.8-5.8c-4.7-1.4-9.5-2.6-13.9-4.9
		c-6.4-3.2-8.3-7.4-7-14.5c0.9-4.8,3.6-8.3,7.8-10.6c7-3.9,14.6-3.8,22.2-2.6c3.5,0.6,7.1,1.3,9.8,4.1c0.2,1.7,0.5,3.4,0.7,5.4
		c4.8-3.4,8.9-7.2,13.9-11.7c-11.6-5.5-23-7.8-34.9-7c-9,0.6-17.4,3.3-24.7,9.1c-10.9,8.7-13.5,29.7,3.1,38.4
		c1.7,0.9,3.4,1.8,5.1,2.5c6.2,2.8,12.8,4.7,19.4,6.7c3.6,1.1,7.3,2.2,10.7,3.7c5.6,2.5,8.2,7.1,8.3,13.1c0,8.8-5.2,16-14.2,18.4
		c-13.6,3.6-25.5-0.2-35.8-9.5c-1.5-1.3-2.8-2.8-4.6-4.7c-0.4,6.2-0.7,11.7-1,16.7c2.6,2.2,5.1,3.1,7.6,4
		c12.6,4.1,25.3,4.5,38.2,1.4C209.4,150.7,213.7,148.5,217.5,145.6z"/>
	<path class="st0" d="M308.1,170.4c1.8,2.2,4.1,3.3,4.5,6.3c-4.5,12.3-9.2,25.1-14.4,39.3c-6.4-16.1-12.3-30.9-18.3-46
		c-5.3-0.2-10.3-0.6-15.8,0.3c1.6,2,3.8,2.9,4.3,5.4c0.3,2.3-1.1,4.5-1.9,6.8c-5.6,15.5-11.2,31.1-17,46.5
		c-2.2,5.8-3.3,12.3-10,16.7c4.7-0.1,8.1,0.4,11.8-0.5c7.3-20.6,14.6-41.3,21.9-61.9c0.4,0,0.8,0,1.2,0c6.6,17.5,13.2,35,19.7,52.3
		c4.9,3.3,9.7,6.4,14.4,9.4c0.3-0.2,0.5-0.3,0.8-0.5c-2.4-6.3-4.9-12.6-7.2-18.6c5.2-14.6,10.2-28.8,15.7-44.2
		c6.9,18.9,13.2,36.6,19.6,54.1c5,3.2,9.8,6.2,14.6,9.3c0.2-0.2,0.4-0.5,0.6-0.7c-9.5-24.7-19.1-49.5-28.8-74.5
		C318.3,170,313.5,169.3,308.1,170.4z"/>
	<path class="st0" d="M552.7,174.9c-5.8-2.6-11.8-4.2-18.1-4.6c-11.4-0.9-22.8-0.3-34.2-0.4c-0.8,0-1.9-0.3-2.3,1.1
		c1.4,2.7,4.5,4,6,7.7c0,21.6,0,44,0,66.9c11.4,0,22.1,0.9,32.6-0.2c18.9-1.9,33.4-14.4,35.6-33.4
		C574.1,196.8,568.3,182.1,552.7,174.9z M560.6,211.9c-0.7,11.8-9.9,22.8-22.1,26.2c-1.5,0.4-3,0.7-4.5,0.8c-5.9,0.1-11.7,0-18,0
		c0-19.1,0-37.9,0-56.7c-1.5-1.9-2.5-3.2-3.5-4.6c0.8-1.7,2.3-1.2,3.5-1.2c8.5,0.3,17.1,0.1,25.3,3.3
		C554.7,185,561.4,196.2,560.6,211.9z"/>
	<path class="st0" d="M378.3,170.3c-16.7,6.6-26.5,21.6-25.8,40.3c0.9,23.3,17.8,37.3,37.1,36.3c13,0.8,26.4-6.7,33.5-19.8
		c4.7-8.6,6-17.9,4.8-27.6C424.7,175.2,401.1,161.3,378.3,170.3z M411.3,229.8c-9.4,11.7-27,12.3-37.6,0.9
		c-10.3-11.1-13-24.4-8-38.6c5.3-15.1,22.5-20.7,36-12.1c11.1,7.1,15.1,17.9,15.6,28.6C417.2,217.6,415.8,224.2,411.3,229.8z"/>
	<path class="st0" d="M690.5,208c5.3-0.9,10.4-2.6,14.4-6.4c5.8-5.5,7.3-12.2,5.3-19.8c-1.9-7.1-7-10.5-13.9-11.8
		c-2.4-0.5-4.9-0.7-7.4-0.7c-9.5,0-19,0-28.5,0c-1.4,0-2.8,0-5,0c2.1,2.6,4.2,3.8,5.3,6.7c0,1.4,0,3.5,0,5.5c0,16.7,0,33.5,0,50.2
		c0,2.5,0,4.9-0.1,7.4c-0.2,2.8-3.1,3.9-4.5,6c5.6,0,10.9,0,16.4,0c0-23.1,0-45.7,0-68.4c2.6-1.1,4.5-0.8,6.4-0.8
		c4.6,0.1,9.1,0.4,13.4,2.2c7.5,3.2,9.1,12.9,3.2,17.8c-2.4,1.9-4.8,3.8-7.6,5c-3.9,1.8-7.8,3.4-12.2,5.3
		c9.8,13.3,19.4,26.2,28.8,38.9c5.2,0,10,0,15.2,0C713.4,239.9,692.5,213.1,690.5,208z"/>
	<path class="st0" d="M480.1,202.7c6.2-4.8,8.5-12.5,6.4-20.5c-2.1-7.7-7.7-11-15-11.9c-7.5-1-15.1-0.5-22.7-0.4
		c-3.9,4.2-7.7,8.2-11.5,12.3c0,19.5,0,38.8,0,58.2c-0.9,2.1-3.3,2.8-4.3,5.1c5.5,0.3,10.7,0.6,16.5-0.3c0-22.9,0-45.6,0-68.5
		c6.1-0.4,11.6-0.2,16.9,1.2c4.6,1.2,7.7,3.8,8.7,8.7c1,5.1-1.5,8.4-5.1,11.2c-2.7,2.1-5.7,3.7-8.9,5c-2.8,1.2-5.6,2.2-8.9,3.5
		c10.1,13.3,19.9,26.3,29.8,39.2c4.3,0,8.3,0.3,13.2-0.2c-10.6-13-19.6-25.8-29.7-37.3C472.1,207.2,476.2,205.7,480.1,202.7z"/>
	<path class="st0" d="M597,173c-1.2,3.8-3.6,7.5-3.3,12c12.5-14.3,30-10.4,39.6,2c8,10.3,9.9,22.1,6.3,34.5
		c-3.9,13.1-17,20-30.2,16.3c-8.9-2.5-14.5-8.5-18.4-16.6c-2.6-5.5-3.6-11.4-3.9-17.5c-3.3,6.9-5.5,14.1-7.6,20.8
		c9.2,25.7,43.3,28.6,59.5,12.7c11.4-11.1,15.3-24.6,12.3-40.1C646.5,171.7,619.7,159.8,597,173z"/>
	<path class="st0" d="M199.5,171.2c-0.9,1-1.1,2.2-0.9,3.6c3.1-0.2,5.6-2.6,9.2-1.7c9.6,2.5,14.7,16,8.6,24
		c-2.1,2.7-4.8,4.2-8.3,4.3c-5.2,0.2-9.4-2.7-12-8c-0.8-1.6-0.5-3.7-2.3-5.3c-1.5,2.7-2.3,5.3-2.6,7.8c2.8,8.3,14.4,12.3,23.4,7.5
		c8.7-4.7,12.2-16.6,7.4-25.8C217.7,169.4,208.7,166.8,199.5,171.2z"/>
	<path class="st0" d="M240.6,185.5c-2.1-1.9-5.1,0.1-7.1-2c-0.2-3.4-0.7-7,0.4-10.3c4.1-1.5,8.7,0.9,12.8-1.8
		c-3.9-1.8-11.7-2.2-19-1.1c0,13.9,0,27.8,0,42.1c2.9-1,4-2.8,5.3-4.4c0.9-6.7-0.5-13.5,0.7-19.7
		C236.3,186.7,239.4,188.9,240.6,185.5z"/>
	<path class="st0" d="M198.2,175.5c0.1-0.2,0.2-0.5,0.3-0.7C198.1,174.9,197.6,174.9,198.2,175.5z"/>
	<path class="st0" d="M198.5,174.9h0.1v-0.1L198.5,174.9C198.5,174.8,198.5,174.8,198.5,174.9z"/>
	<path class="st0" d="M593.4,185.3l0.4-0.1c0-0.1,0-0.1,0-0.2l-0.1,0.1L593.4,185.3z"/>
	<polygon class="st0" points="285.8,5.8 289.7,11.6 289.8,11.6 293.7,6.2 293.7,14.2 295.9,12 295.7,1.4 289.8,8.1 286.2,2.6 
		283.7,5.1 283.7,14.7 285.8,14.7 	"/>
	<rect x="318.2" y="2.2" class="st0" width="2.2" height="12.4"/>
	<path class="st0" d="M353.8,8.4c0-3.5-2.7-6.2-6.6-6.2h-4.6v12.4h4.6C351.1,14.7,353.8,11.9,353.8,8.4z M344.8,4.2h2.4
		c2.6,0,4.3,1.8,4.3,4.2c0,2.4-1.7,4.2-4.3,4.2h-2.4V4.2z"/>
	<path class="st0" d="M386.7,8.4c0-3.2-2.3-5.7-5.7-6.1l-1.9,1.9h1c2.6,0,4.3,1.8,4.3,4.2c0,2.4-1.7,4.2-4.3,4.2h-2.4v-7l-2.2,2.2
		v6.8h4.6C384,14.7,386.7,11.9,386.7,8.4z"/>
	<polygon class="st0" points="417,12.7 410.4,12.7 410.4,2.2 408.3,2.2 408.3,14.7 417,14.7 	"/>
	<polygon class="st0" points="447.5,12.7 440.4,12.7 440.4,9.4 446.6,9.4 446.6,7.4 440.4,7.4 440.4,4.2 443.6,4.2 441.6,2.2 
		438.2,2.2 438.2,14.7 447.5,14.7 	"/>
	<polygon class="st0" points="514.9,12.9 507.6,12.9 507.6,9.5 514,9.5 514,7.5 507.6,7.5 507.6,4.3 514.8,4.3 514.8,2.3 505.4,2.3 
		505.4,14.9 514.9,14.9 	"/>
	<path class="st0" d="M539.4,11.9h6l1.1,2.7l1.6-1.6l-5.7-10.7L535.8,15h2.3L539.4,11.9z M542.4,5.7l2.2,4.2h-4.4L542.4,5.7z"/>
	<path class="st0" d="M572.7,10.5h2.8l3.1,4.4h2.6l-3.4-4.8c1.8-0.5,3-1.8,3-3.9c0-2.5-1.8-4-4.7-4h-5.6v10.3h2.2L572.7,10.5
		L572.7,10.5z M572.7,4.3h3.2c1.6,0,2.6,0.7,2.6,2.1c0,1.3-1,2.1-2.6,2.1h-3.3L572.7,4.3L572.7,4.3z"/>
	<polygon class="st0" points="606,14.9 606.4,14.9 608.2,13.1 608.2,4.3 612.2,4.3 612.2,2.3 603.9,2.3 602,4.2 602,4.3 606,4.3 	
		"/>
	<polygon class="st0" points="636.2,9.6 642.2,9.6 642.2,14.9 644.4,14.9 644.4,4.6 642.2,1.2 642.2,7.5 636.2,7.5 636.2,3.5 
		633.9,3.5 633.9,12.5 636.2,12.5 	"/>
	<path class="st0" d="M481,8.7c-2.2-2.2-5.8-2.2-8.1,0C475.2,10.9,478.8,10.9,481,8.7z"/>
	<path class="st0" d="M184.3,16.4l1.6,1.6l7-7l7.8,7.8l7.8-7.8l7.8,7.8l8.3-8.3h41.3V8.2h-41.4L216.3,0l-7.8,7.8L200.7,0l-7.8,7.8
		l-7-7l-1.6,1.6l5.8,5.8H0v2.3h190.3L184.3,16.4z M216.3,3.2l6.2,6.2l-6.2,6.2l-6.1-6.1l0,0l0,0L216.3,3.2z M200.8,3.2l6.1,6.1l0,0
		l0,0l-6.1,6.1l-6.2-6.2L200.8,3.2z"/>
	<path class="st0" d="M738,8.3l5.9-5.9l-1.6-1.6l-7,7L727.5,0l-7.8,7.8L712,0l-8.3,8.3h-41.3v2.3h41.4l8.2,8.2l7.8-7.8l7.8,7.8
		l7.8-7.8l7,7l1.6-1.6l-5.8-5.8h190.1V8.3L738,8.3L738,8.3z M712,15.6l-6.2-6.2l6.2-6.2l6.1,6.1l0,0l0,0L712,15.6z M727.5,15.6
		l-6.1-6.1l0,0l0,0l6.1-6.1l6.2,6.2L727.5,15.6z"/>
</g>
</svg>
