<svg version="1.1" id="Layer_1" xmlns="http://www.w3.org/2000/svg" xmlns:xlink="http://www.w3.org/1999/xlink" x="0px" y="0px"
	 viewBox="0 0 225.1 166.7" style="enable-background:new 0 0 225.1 166.7;" xml:space="preserve">

	 <defs>
      <linearGradient id="gh-gradient">
        <stop class="stop1" offset="0%"/>
        <stop class="stop2" offset="50%"/>
        <stop class="stop3" offset="100%"/>
      </linearGradient>
		</defs>

<path class="st0" d="M194.3,68.7c-3-5.4-4.6-12.2-6.6-19.2c1.8-0.8,3.8-1.7,5.5-3.2l2-1.6l-0.4-3.9c-0.6-6.3-1.2-12.2-4.7-16.7
	c-2.7-3.4-6.6-5.6-12-6.7c-2.9-0.6-6.3-0.8-10.9-0.8c-2.1,0-4.2,0.1-6.3,0.1c-2.1,0-4.2,0.1-6.3,0.1c-1.8,0-3.4,0-4.8-0.1l-3.5-0.2
	l0.8-3.9l-7.2,1.5c-7.4,1.6-17,1.8-23.5,1.8c-4.2,0-8.5-0.1-12.6-0.2c-2.2,0-4.3-0.1-6.4-0.1l-2.2,0l-1.5,1.6
	c-1.4,1.6-3,3.1-4.7,4.7c-1.3,1.2-2.7,2.5-4,3.9l-1.9,2c-3.1,0.3-6.5,0.6-10.4,0.8l0,0c-0.1-0.2-0.1-0.4-0.2-0.6l-0.9-2.3l-2.4-0.6
	c-2.6-0.6-5.2-1.1-7.8-1.5c-1.1-0.2-2.1-0.3-3.1-0.5c0.2-1,0.5-1.8,0.9-2.4c1.6-3.9,9.9-9.2,9.9-9.2l-7.4-0.3l-3.5-0.3
	c-1.2-0.1-2.5-0.2-3.9-0.2c-1.5,0-3,0.1-4.4,0.1c-1.3,0.1-2.6,0.1-3.7,0.1c0,0,0,0,0,0c-0.9,0-3.6,0-4.8-0.7c-0.1-0.1-0.3-0.5-0.6-1
	c-0.6-1.2-1.5-3.1-3.5-4.5L30.9,0l-1.4,7.6c-0.2,1.3-0.7,3.7-10.7,3.7c-2.1,0-4.3-0.1-6.4-0.2l-6-0.3l-0.1,4.9c0,2,0,4.1,0,6.1
	c0.1,7.5,0.2,15.9-2.9,18.9L0,44.2l3.4,3.4C7.7,51.9,7.3,63.2,7,73.2c-0.1,3.2-0.2,6.5-0.2,9.6l0.1,12.9l8.3-9.8
	c0.2-0.2,0.4-0.4,0.6-0.6c3.1-2.8,9.8-4.5,17.7-4.5c-0.9,6-3.7,11.4-6.2,16.2c-0.5,0.9-0.9,1.8-1.4,2.7l-0.3,0.5l-10.8,19.1
	c0,0,9.9-10.6,14.3-4.9c0.1,0.2,0.9,6.3,0.7,9c-0.1,2-0.2,4.1-0.2,6c0,2.2,0.1,4.4,0.1,6.5c0.1,3.9,0.2,7.6-0.1,10.6
	c-0.4,4-2.2,6.7-6,8.9l-7.4,4.3l7.5,4.1c0.9,0.5,1.9,0.8,2.9,0.8c1.3,0,2.4-0.4,3-0.7c0.1,0,0.1-0.1,0.2-0.1
	c0.8-0.2,1.7-0.3,2.5-0.5c3-0.6,6-1,9-1.5c4.6-0.7,9.3-1.4,13.8-2.5L64,157l-6-5.3h0.7c0,0,0,0,0,0c8.4,0,15.6-0.1,23.6-0.5l1.8-9.1
	c-1.2-0.5-3.6-1.7-4.1-3.2c-0.4-1.1-0.4-3.2-0.4-5.5c5.6,0.3,8.1,3.1,11.9,8l5.6,6.9l3-7.6c0-0.1,0.1-0.1,0.1-0.2l8.5-0.1
	c0.2,0,0.3,0,0.5,0l0.9,0c2.5,0,4.9,0.1,7.5,0.2c2.6,0.1,5.3,0.2,8,0.2c2,0,3.8-0.1,5.6-0.2l1.9-0.1c0.7,1.2,1.5,2.4,2.3,3.5
	c4.5,6.3,12.5,8.6,18.2,9.7c1.3,0.3,2.6,0.5,4,0.7l5.2,0.8l3.9,11.3l4.1-10l2.5,0.4l-2-1.8l0.2-0.5c2.4-5.8,6.9-8.8,14.3-9.4
	l3.8-0.3l0.6-3.8c0.5-3.4,0.3-7.2,0-10.9c-0.2-3.5-0.4-7,0-9.4c0.4-1.8,0.8-1.8,1.2-1.9l10.4-1.8l-8.2-6.7c-0.3-0.2-0.6-0.5-0.9-0.7
	c-1.8-1.4-1.9-1.6-1.9-2c-0.1-1.7,0-4.6,0.1-7.7c0.1-4,0.3-8.2,0-11.5c0-0.1,0-0.2,0-0.3l-0.3-2.4c3.1,1.3,6.9,2.3,11.3,3
	c1.7,0.3,13,1.5,23.1-0.6C217.1,86.6,200,78.9,194.3,68.7z"/>
<g>
	<path class="st1" d="M12.3,81.7c0.3-2.6,0.9-4.9,1.7-5.8c6.2-3.2,24.4-3.4,24.4-3.4c0,1.2-0.2,2.5-0.5,3.7c0.2,0,0.3,0,0.5,0
		c0.1,10.4-4.9,18.7-8.4,25.6c7.5-6.7,13.9-14.5,16.6-23c4.7-15.1,2-29.8,1.7-31l7.4-4.1c0.1-0.1,0.1-0.3-0.1-0.5
		c-7.5,0-15,0-22.5,0c0.7,1.1,2.4,2.2,2.9,4.3c0.6,2.5,0.2,7.7,0.2,11.7c0,4,0.4,9.3-1.4,10.1c-1.2,0.6-2.2,0.5-3.1,0.1v0
		c-8.8,3.9-7-22.9-7-37.6c0-14.8,10.8-13.3,10.8-13.3v3.5c1.8,4,1,10.4,1,15.7l2.6-2.6h9.1V22.3c0,0,3.8-5.3,8.9-6.5
		c0,0,0-0.1,0-0.1C50.6,15,43,17,38.5,14.3c-2.5-1.5-2.2-4.2-4.5-5.9c-1.6,8.7-13,7.9-23.2,7.4c-0.2,10.7,1.2,23-4.3,28.4
		c7.4,7.5,4.6,24.9,4.8,38.5C11.6,82.4,11.9,82.1,12.3,81.7z"/>
	<path class="st1" d="M83.2,70.1V36.5c2.4-2.4,4.9-3.4,6.9-3.9c0.2-0.2,0.3-0.5,0.2-0.7c-5.7,0.7-11.7,1.2-17.7,1.6
		c0.5,1,2.4,2.2,2.7,4.1c0.7,3.8,0,9.3,0,14.6c0,3.5,1,12.9-1.4,13.5c-1.3,0.3-2.8-0.8-3.3-1.4c-6-0.1-3.8-18.2-3.8-23.4
		c0-5.6-2.7-8.5-2.7-8.5l3.9-1.8c-0.1-0.2-0.1-0.4-0.2-0.6c-4.5-1.1-9.7-1.6-14.3-2.7c0,0.3,0,0.6,0.2,0.7c2.7,3.4,4.5,8.2,4.8,14.4
		c0.3,6-0.6,12.5,0.5,17.3c1.5,7.2,9.8,8.1,16.8,10.4c4.1,1.3,8.2,2.8,12.1,3.9L83.2,70.1z"/>
	<path class="st1" d="M94.7,68.1h4.9c0,0,0-27.3,0-29.3c0-1.5,3.9-3,5.9-3.7c0,0,0,0,0-0.1c-5.4,0-10.8,0-16.2,0
		c0.1,1.4,2.6,2.3,3.1,4.5c0.7,3.2,0.7,24.1,0,27.2c-0.4,1.8-3,2.9-2.6,3.8c0.5-0.1,1.1-0.1,1.6-0.1L94.7,68.1z"/>
	<path class="st1" d="M94.9,26h13.4v3.4c0.1,0,0.1,0,0.2,0c0,9.1,0,20.7,0,30.6c0,3.6,0.6,7.6,0,10.4c-0.5,2.1-2.9,3.2-3.6,4.7
		c0.4,0,0.9-0.1,1.3-0.1c2.6-1.5,4.6-3.3,4.6-3.3h5.8v-45l14.5-0.1c3-0.6,7.3-4.9,9.6-7.5c0-0.1,0-0.2,0.1-0.2
		c-12.3,2.6-29.2,1.8-43.6,1.6c-2.8,3.1-6,5.8-8.9,8.8c0.8,0,1.6,0,2.4,0L94.9,26z"/>
	<path class="st1" d="M123.7,71.5c0.4,0,0.8,0,1.2,0.1c1.4-0.8,2.8-2,2.8-2l5.6,0.6l0.2-15.5l2.8,1.7c0-0.2,0-0.5,0-0.7
		c2.4,0.9,5.4,1.3,7.3,2.7c-0.6,4.7,0.8,11,0,15.3c-0.4,2.3-2.6,3.5-2.5,4.7c0.2,0,0.4-0.1,0.6-0.1c1.5-0.9,3.2-2.2,4.2-4.1
		c0,0,4.2,0.5,4.2-0.7c0-1.2,0-40.8,0-40.8l5.8-1.6c0.1-0.1,0.3-0.3,0.4-0.4c-4.1-2.6-7.7-5.6-11.8-8.1c-0.9,3.5-3.5,5-6.1,7.2
		c-3.8,3.1-7.4,5.8-10.9,8.6c-1.8,1.5-3.9,2.6-5,4.5c1.7,0.1,2.9,0.7,3.9,1.6C125.5,53.5,128.7,66.6,123.7,71.5z M143.4,32.4l0,3.1
		c0.5,5.7,0.1,12.4,0.2,18.5c-2.2-0.2-5.3-1.3-7.5-2.3c0,0,0-0.1,0-0.1h-2.9v-9.2l-1-0.7L143.4,32.4z"/>
	<path class="st1" d="M180.8,56c-1.6-5.3-2.6-9.3-2.6-9.3l9-5c0-12.9-6.6-17.7-10.3-19.5c-7.8-1.5-18.1-0.2-27.6-0.7
		c3.2,2.4,8.6,3.5,10.2,8.8c1.3,4.3,0.2,11.5,0.2,17.8c0,6.7,0.9,13.3,0,17.6c-0.4,1.9-3.1,3.3-2.7,4.5c0,0,0.1,0,0.1,0l3.9-2.8h5.7
		V51.6l3.7-1.2c2.4,4.4,4.7,9.2,7.3,14c2.4,4.5,4.7,9.9,8.2,13.3c3.8,3.7,10.2,5.5,16.6,6.5C189.6,80.4,183.7,65.8,180.8,56z
		 M170.3,45.4c-1.6,1.2-3.2,2-3.2,2s0-14.6,0-16.6c0-2-1.1-3.9-1.1-3.9s0.3,0,0.9,0.1c0-0.1-0.1-0.2-0.1-0.3
		c4.4,0.9,8.4,0.2,10.7,2.9c2.2,2.7,1.6,6.8,2.5,11.3C176.8,42.5,173.8,44.2,170.3,45.4z"/>
	<path class="st1" d="M181.5,138.1c0,0,0-18.5,0-20.5c0-1.9,2.2-3.8,2.2-3.8c-1.8-0.6-2.2-2.2-2.2-2.2V91.9c1.8,0,3.4-1.6,4.4-2.8
		c0-0.1,0-0.2,0-0.3c-9.6-1.7-15.5-7-18.8-14.9c-3,6-8.4,10.7-17.9,9.5c-1.8,7.6,3.4,22.3-4.5,23.9c1.3,1.8,3.8,3.1,4.3,6.3
		c1.1,6.7-0.9,16.5,0.2,22.1c10.3,1.1,14.5,8.2,17.5,16.6C167.2,137.1,181.5,138.1,181.5,138.1z M160.4,132.9c0-4.8,0-41.3,0-41.3
		s0.4-5.7,9.8-3.8v1.7c1.6,1.6,0.7,9.4,0.7,11.7V126c0,4.2,0.8,8.6-1.4,11c-1.6,0.5-2.8,0.3-3.6-0.2l0.2,1.1
		C166.1,137.9,160.4,137.7,160.4,132.9z"/>
	<path class="st1" d="M131.2,106l10.4-6.3c-0.6-1.5-0.5-6.7-0.5-6.7c0-8.5-8.6-12.5-13.5-14.1c-7.1-0.8-15.7,0-24,0.1
		c3.9,1.5,10.1,4.6,10.7,10.1c0.9,8.7,0,21.8,0,31.5c0,3.9,0.5,8.2-0.2,10.4c-0.9,2.8-4.1,3.4-5.7,4.7c0.5,0,1,0,1.5,0
		c2-0.7,4.5-1.6,5.4-2.5h6.3v-22.8l2.7-1.7c0,0,0.2,0.2,0.5,0.7c0-0.1,0-0.2,0-0.3c4.9,9.9,8.1,23.6,14.3,32.2
		c3.1,4.3,8.8,6.5,15.3,7.8C137.3,143.2,131.2,106,131.2,106z M121.6,105.6c0,0,0-17.3,0-18.6c0-1.4-0.8-2.3-0.8-2.3h0.9
		c-0.2-0.2-0.4-0.5-0.6-0.8c4.3,0.6,8.1,0.1,10.4,2.2c2.6,2.4,2.1,7.2,2.7,11.9c-3.3,1.6-6,3.8-9.5,5.2
		C123.1,104.5,121.6,105.6,121.6,105.6z"/>
	<path class="st1" d="M95.2,133.3c3.4-4.2,11-5.5,11-5.5V122c1.2-0.6,1.6-2.3,1.8-3.4c-0.9,0.7-1.8,1.5-3,2.2
		c-2.9,1.7-6.8,2.2-9.5,3.8c-1.5,0.9-2.3,2.4-3.7,3l-0.4,1l-3.7-2.9v-8.3l17.1-9.5V90.1l3.5-3.5c-7.2-0.4-12.7-2.4-14-8.8
		c-1.4,6.4-7.8,9.1-14.8,9.2v41.6c8.3,0.4,12,5.4,15.8,10.2L95.2,133.3z M87.6,90.3c1.5,0,3.3-2,3.3-2l0.8,0.1c0-0.3,0-0.6,0-0.9
		c1.9,2.3,4.4,4.1,7.7,5v13.1c-2.5,1.4-4.9,2.9-7.7,4c-2,1.6-4.1,3-4.1,3V90.3z"/>
	<path class="st1" d="M25.8,159.5c0.9,0.5,1.8-0.2,2.7-0.5c0.9-0.2,1.8-0.4,2.7-0.5c2.3-1.5,4.3-3.1,4.8-4.2c0,0,10.5-1.2,11.6-2.3
		c1.1-1.1-0.3-32.8-0.3-32.8c2.8-1,8.3-1.7,12.3-0.7c-1.1,7.8,1.8,18.7-0.9,24.6c-0.7,1.5-2.9,2.9-2.7,3.8c0.5,0,1,0,1.5,0
		c2.3-1.6,4.4-3.7,4.4-3.7h9.4V81.8c2.9-2.9,6.4-4.1,8.9-4.5c0.2-0.3,0.4-0.6,0.5-0.8C72.6,74.2,65,71.4,56.9,69
		c0.7,1.3,2.1,3.2,2.5,5.2c1.8,9.5-0.7,24,0,34c-2.5,1.5-5.1,2.8-8,3.9c-2.1,1.7-4.5,2.9-4.5,2.9V97.8c0.7-3.1,3-5.8,4.9-7.7
		c0.2-0.9,0.5-1.7,0.8-2.5c-8.1,7.1-16,14.3-23.6,21.8c1.7,0,4.3,0.9,5,2.7c1.2,3.2,0.2,11.3,0.2,17.1c0,6.3,0.4,12.6,0,17.6
		C33.6,153.7,29.7,157.2,25.8,159.5z"/>
</g>
<g>
	<path class="st2" d="M14,76c-0.9,0.9-1.4,3.2-1.7,5.8c5-4.6,15.2-6.4,25.5-5.5c0.3-1.2,0.5-2.5,0.5-3.7C38.4,72.5,20.2,72.8,14,76z
		"/>
	<path class="st2" d="M46.5,78.9c-2.6,8.5-9,16.3-16.6,23c-0.1,0.2-0.2,0.3-0.2,0.5c10.2-9.2,21.6-17.1,22.7-34.4
		c0.2-3.3,0-6.4,0-9.7c0-4.8-0.9-10.7,1.6-13.3c0.4-0.5,1.5-0.7,1.7-1.1l-7.4,4.1C48.5,49,51.2,63.8,46.5,78.9z"/>
	<path class="st2" d="M24.8,31.9c0,14.8-1.8,41.6,7,37.6v0c-2.2-1.1-3.2-4.9-3.5-7.3c-1-7.7-1-22.4-0.5-30.6
		c0.4-6,1.5-11.7,7.3-10.6c0.2,0.3,0.4,0.6,0.5,1v-3.5C35.7,18.6,24.8,17.2,24.8,31.9z"/>
	<path class="st2" d="M48.5,22.3v12.8h-9.1l-2.6,2.6c0,0,0,0,0,0c5.3,0,10.6,0,15.9,0c-0.1-7.3-0.5-17,3.2-20.7
		c0.5-0.5,1.6-0.6,1.6-1.2C52.2,17.1,48.5,22.3,48.5,22.3z"/>
	<path class="st2" d="M66.8,40.8c0,5.3-2.2,23.3,3.8,23.4c0,0-0.1-0.1-0.1-0.1c-1.6-2.4-0.7-8.6-0.7-12.8c0-8.3,0.2-15.4-1.8-20.8
		l-3.9,1.8C64.1,32.3,66.8,35.2,66.8,40.8z"/>
	<path class="st2" d="M83.2,70.1l4.7,3.7c0.1,0,0.3,0.1,0.4,0.1C85.1,70.2,86,61.8,86,53.3c0-9-0.9-15.5,2.5-19.1
		c0.5-0.6,1.2-1,1.6-1.5c-2,0.5-4.5,1.5-6.9,3.9V70.1z"/>
	<path class="st2" d="M99.6,38.8c0,2,0,29.3,0,29.3h-4.9l-3.3,2.3c4.5-0.3,9.7,0,14.3-0.1c-4.2-2.2-3.1-9-3.1-17.3
		c0-5-0.7-10.6,0-13.7c0.5-2.2,3-3.1,2.9-4.2C103.5,35.8,99.6,37.3,99.6,38.8z"/>
	<path class="st2" d="M94.9,26l-4.3,3.3c5.9,0,12.1-0.3,17.6,0.2V26H94.9z"/>
	<path class="st2" d="M131,26.6l-14.5,0.1v45h-5.8c0,0-2.1,1.8-4.6,3.3c5.3-0.4,11.2-0.3,16.6-0.6c-3.9-1.9-3.2-8-3.2-14.6
		c0-10.1-0.2-21.6,0.2-30.6c4.3,0,8.6,0,12.9,0c3-2.8,6.9-5.9,7.9-10.1C138.3,21.7,134,26,131,26.6z"/>
	<path class="st2" d="M150.2,73.6c0,1.2-4.2,0.7-4.2,0.7c-1,1.8-2.8,3.2-4.2,4.1c5.5-0.9,11.3-1.4,16.4-2.6
		c-7.1-2-5.2-11.7-5.2-22.1c0-9.4-1.1-18.8,3-22.6l-5.8,1.6C150.2,32.8,150.2,72.3,150.2,73.6z"/>
	<path class="st2" d="M133.2,70.2l-5.6-0.6c0,0-1.4,1.2-2.8,2c4.6,0.3,9,0.9,13.6,1.3c-3-2.1-2.4-10.7-2.1-16.4l-2.8-1.7L133.2,70.2
		z"/>
	<path class="st2" d="M133.2,51.6h2.9c0-3.3,0-6.5,0-9.8c2.1-2.4,4.9-4.1,7.3-6.3l0-3.1l-11.1,9.3l1,0.7V51.6z"/>
	<path class="st2" d="M166.8,67.4h-5.7l-3.9,2.8c4.4-0.3,11.2,0.4,16.9,0.2c-0.9-1.3-2.6-2.1-3.4-4.3c-1.5-4.1,0-11.1-0.2-15.8
		l-3.7,1.2V67.4z"/>
	<path class="st2" d="M187.2,41.7l-9,5c0,0,1,4.1,2.6,9.3c3,9.8,8.8,24.4,21.6,28.1c1.7,0.3,3.4,0.5,5,0.7
		c-7.6-3.1-14.2-6.9-17.7-14c-3.4-7-5.6-15.4-7.9-23.9c2.6-1.5,5.9-2.4,8.2-4.3c-0.7-6.4-1-11.9-3.9-15.5c-2.2-2.7-5.4-4.2-9.2-5
		C180.7,23.9,187.2,28.8,187.2,41.7z"/>
	<path class="st2" d="M170.2,30.8c-0.5-2.1-2.5-2.2-3.3-3.7c-0.5-0.1-0.9-0.1-0.9-0.1s1.1,1.9,1.1,3.9c0,2,0,16.6,0,16.6
		s1.6-0.8,3.2-2c0,0-0.1,0-0.1,0C169.4,40.8,171.2,34.8,170.2,30.8z"/>
	<path class="st2" d="M181.5,91.9v19.7c0,0,0.5,1.7,2.2,2.2c0,0-2.2,1.8-2.2,3.8c0,1.9,0,20.5,0,20.5s-14.3-0.9-15,14.2
		c0.1,0.2,0.2,0.5,0.3,0.7c2.9-7.3,8.9-11.6,18.4-12.4c1.4-9.2-3.8-24.8,5.2-26.3c-2.2-1.8-4.3-3-4.5-6.1c-0.3-4.4,0.5-13.6,0-19
		C184.9,90.4,183.3,91.9,181.5,91.9z"/>
	<path class="st2" d="M165.9,136.8c-1.8-1.1-2.2-3.9-2.3-6.8c-0.2-8.6,0-18,0-26.6c0-6.3-1.6-14.6,4.3-14.6c0.7,0,1.7,0.2,2.3,0.7
		v-1.7c-9.4-1.9-9.8,3.8-9.8,3.8s0,36.5,0,41.3c0,4.8,5.7,5,5.7,5L165.9,136.8z"/>
	<path class="st2" d="M121.6,110.4v22.8h-6.3c-0.9,0.9-3.4,1.8-5.4,2.5c6.8,0,13.8,0.7,20.7,0.2c-2.1-1.4-5.2-2.2-5.9-5.2
		c-1.3-6.1,0.9-15.4,0-21.3c-0.3-0.5-0.5-0.7-0.5-0.7L121.6,110.4z"/>
	<path class="st2" d="M141.2,93c0,0-0.2,5.3,0.5,6.7l-10.4,6.3c0,0,6.1,37.3,23.1,43.2c1.2,0.3,2.5,0.5,3.8,0.7
		c-2.7-2.5-5.6-3.6-8.2-5.9c-9.3-8.3-10.6-24.7-14.1-38c1.3-2.2,7.8-3.4,8.6-5.9c0.4-1.4-0.7-7.2-0.9-8.3
		c-1.4-8.8-7.6-11.9-15.9-12.9C132.6,80.5,141.2,84.5,141.2,93z"/>
	<path class="st2" d="M124.8,103.2c-0.8-4.8,1.1-11.3,0-15.5c-0.5-1.8-2-2.1-3.1-3.1h-0.9c0,0,0.8,0.9,0.8,2.3c0,1.4,0,18.6,0,18.6
		S123.1,104.5,124.8,103.2C124.8,103.2,124.8,103.2,124.8,103.2z"/>
	<path class="st2" d="M104.9,108l-17.1,9.5v8.3l3.7,2.9l0.4-1c-0.1,0.1-0.3,0.1-0.4,0.2c0.5-2.8,0.1-7.5,0.2-9.9
		c5.3-3.5,11.5-6.2,17-9.5V86.6c-0.1,0-0.2,0-0.3,0l-3.5,3.5V108z"/>
	<path class="st2" d="M91.7,109.5c0-6.1,0-14.9,0-21.2l-0.8-0.1c0,0-1.8,2-3.3,2v22.2C87.6,112.5,89.7,111.1,91.7,109.5
		C91.7,109.5,91.7,109.5,91.7,109.5z"/>
	<path class="st2" d="M106.2,122v5.7c0,0-7.6,1.3-11,5.5l0.2,5.6c0,0,0.1,0.1,0.1,0.1c2.2-5.6,6.5-9.2,13.8-9.7v-11.5
		c-0.5,0.2-0.9,0.5-1.3,0.8C107.9,119.8,107.4,121.4,106.2,122z"/>
	<path class="st2" d="M47,97.8V115c0,0,2.4-1.2,4.5-2.9c-0.1,0.1-0.3,0.1-0.4,0.2c0.3-7.4-0.7-15.9,0.8-22.1
		C50,92,47.7,94.8,47,97.8z"/>
	<path class="st2" d="M47.7,152c-1.1,1.1-11.6,2.3-11.6,2.3c-0.5,1.1-2.5,2.7-4.8,4.2c7.7-1.5,15.4-2.2,22.5-4
		c-6.6-5.9,1.7-30.9-6.4-35.3C47.4,119.2,48.8,151,47.7,152z"/>
	<path class="st2" d="M71.3,143.2h-9.4c0,0-2.1,2.1-4.4,3.7c8.6,0,16.1-0.1,24.4-0.4c-2.1-1-5.4-2.7-6.6-5.9
		c-1.3-3.4-0.5-9.7-0.5-14.9c0-8.8,0-18.4,0-27c0-5-0.6-9.9,0-13.5c0.6-3.7,3.8-5.9,5.4-8c-2.5,0.5-6,1.6-8.9,4.5V143.2z"/>
</g>
</svg>
